<svg xmlns="http://www.w3.org/2000/svg" id="call" viewBox="0 0 64 64">
  <path d="M33.06 46.94A31.45 31.45 0 0 1 16.89 30.55l4.21-2.84a26.28 26.28 0 0 1-1.77-9.44H9.27A36.46 36.46 0 0 0 45.73 54.73V44.67A26.29 26.29 0 0 1 36 42.78ZM30.73 21.27a12 12 0 0 1 12 12" style="fill:none;stroke:#078cd6;stroke-linecap:round;stroke-linejoin:round;stroke-width:2px"></path>
  <path d="M30.73,15.27a18,18,0,0,1,18,18" style="fill:none;stroke:#078cd6;stroke-linecap:round;stroke-linejoin:round;stroke-width:2px"></path>
  <path d="M30.73,9.27a24,24,0,0,1,24,24" style="fill:none;stroke:#078cd6;stroke-linecap:round;stroke-linejoin:round;stroke-width:2px"></path>
</svg>
